<svg xmlns="http://www.w3.org/2000/svg" viewBox="0 0 32 32" shape-rendering="crispEdges">
  <rect width="32" height="32" fill="#1e1830"/>
  <!-- Ears outer -->
  <rect x="5" y="5" width="5" height="5" fill="#e0af68"/>
  <rect x="22" y="5" width="5" height="5" fill="#e0af68"/>
  <!-- Ears inner pink -->
  <rect x="6" y="7" width="2" height="2" fill="#ff79c6"/>
  <rect x="24" y="7" width="2" height="2" fill="#ff79c6"/>
  <!-- Head -->
  <rect x="5" y="10" width="22" height="14" fill="#e0af68"/>
  <rect x="4" y="12" width="1" height="10" fill="#e0af68"/>
  <rect x="27" y="12" width="1" height="10" fill="#e0af68"/>
  <!-- Face shading -->
  <rect x="5" y="23" width="22" height="1" fill="#b88a44"/>
  <!-- Eyes -->
  <rect x="9" y="14" width="4" height="4" fill="#1a1b26"/>
  <rect x="19" y="14" width="4" height="4" fill="#1a1b26"/>
  <rect x="10" y="15" width="2" height="2" fill="#9ece6a"/>
  <rect x="20" y="15" width="2" height="2" fill="#9ece6a"/>
  <rect x="11" y="15" width="1" height="1" fill="#ffffff"/>
  <rect x="21" y="15" width="1" height="1" fill="#ffffff"/>
  <!-- Nose -->
  <rect x="15" y="19" width="2" height="2" fill="#ff79c6"/>
  <!-- Mouth -->
  <rect x="13" y="21" width="2" height="1" fill="#1a1b26"/>
  <rect x="17" y="21" width="2" height="1" fill="#1a1b26"/>
  <rect x="15" y="22" width="2" height="1" fill="#1a1b26"/>
  <!-- Whiskers -->
  <rect x="1" y="18" width="4" height="1" fill="#ffffff"/>
  <rect x="1" y="20" width="4" height="1" fill="#ffffff"/>
  <rect x="27" y="18" width="4" height="1" fill="#ffffff"/>
  <rect x="27" y="20" width="4" height="1" fill="#ffffff"/>
</svg>
