<svg xmlns="http://www.w3.org/2000/svg" viewBox="0 0 32 32" shape-rendering="crispEdges">
  <rect width="32" height="32" fill="#1e1830"/>
  <!-- Ears outer -->
  <rect x="5" y="4" width="5" height="6" fill="#e8902a"/>
  <rect x="22" y="4" width="5" height="6" fill="#e8902a"/>
  <!-- Ears inner -->
  <rect x="6" y="6" width="2" height="3" fill="#ff79c6"/>
  <rect x="24" y="6" width="2" height="3" fill="#ff79c6"/>
  <!-- Head body -->
  <rect x="5" y="9" width="22" height="15" fill="#e8902a"/>
  <rect x="4" y="11" width="1" height="11" fill="#e8902a"/>
  <rect x="27" y="11" width="1" height="11" fill="#e8902a"/>
  <!-- Shading on chin -->
  <rect x="5" y="23" width="22" height="1" fill="#d07820"/>
  <!-- Stripes -->
  <rect x="9" y="10" width="2" height="1" fill="#c07018"/>
  <rect x="14" y="10" width="2" height="1" fill="#c07018"/>
  <rect x="19" y="10" width="2" height="1" fill="#c07018"/>
  <rect x="6" y="11" width="1" height="1" fill="#c07018"/>
  <rect x="25" y="11" width="1" height="1" fill="#c07018"/>
  <!-- Eyes -->
  <rect x="9" y="13" width="4" height="4" fill="#1a1b26"/>
  <rect x="19" y="13" width="4" height="4" fill="#1a1b26"/>
  <rect x="10" y="14" width="2" height="2" fill="#ffcc20"/>
  <rect x="20" y="14" width="2" height="2" fill="#ffcc20"/>
  <rect x="11" y="14" width="1" height="1" fill="#ffffff"/>
  <rect x="21" y="14" width="1" height="1" fill="#ffffff"/>
  <!-- Nose -->
  <rect x="15" y="18" width="2" height="2" fill="#ff79c6"/>
  <!-- Mouth -->
  <rect x="14" y="20" width="1" height="1" fill="#2a1808"/>
  <rect x="17" y="20" width="1" height="1" fill="#2a1808"/>
  <rect x="15" y="21" width="2" height="1" fill="#2a1808"/>
  <!-- Whiskers -->
  <rect x="1" y="17" width="4" height="1" fill="#ffffff"/>
  <rect x="1" y="19" width="4" height="1" fill="#ffffff"/>
  <rect x="27" y="17" width="4" height="1" fill="#ffffff"/>
  <rect x="27" y="19" width="4" height="1" fill="#ffffff"/>
</svg>
